PathFileType   4   (X/Y/Z)
DataRate	CameraRate	NumFrames	NumMarkers	Units	OrigDataRate	OrigDataStartFrame	OrigNumFrames
120.0	120.0	12	37	mm	120.0	104	206
Frame#	Time	midhip	hip_r	hip_l	knee_r	knee_l	ankle_r	ankle_l	midasis	asis_r	asis_l	psis_r	psis_l	epicondLat_r	epicondLat_l	epicondMed_r	epicondMed_l	malleolusLat_r	malleolusLat_l	malleolusMedv_r	malleolusMedv_l	neck	subclavicle_r	subclavicle_l	sternalnotch	xyphoidprocess	thighwand_r	thighwand_l	upperleg1_r	upperleg1_l	upperleg2_r	upperleg2_l	shankwand_r	shankwand_l	lowerleg1_r	lowerleg1_l	toe_r	toe_l
 	 	X1	Y1	Z1	X2	Y2	Z2	X3	Y3	Z3	X4	Y4	Z4	X5	Y5	Z5	X6	Y6	Z6	X7	Y7	Z7	X8	Y8	Z8	X9	Y9	Z9	X10	Y10	Z10	X11	Y11	Z11	X12	Y12	Z12	X13	Y13	Z13	X14	Y14	Z14	X15	Y15	Z15	X16	Y16	Z16	X17	Y17	Z17	X18	Y18	Z18	X19	Y19	Z19	X20	Y20	Z20	X21	Y21	Z21	X22	Y22	Z22	X23	Y23	Z23	X24	Y24	Z24	X25	Y25	Z25	X26	Y26	Z26	X27	Y27	Z27	X28	Y28	Z28	X29	Y29	Z29	X30	Y30	Z30	X31	Y31	Z31	X32	Y32	Z32	X33	Y33	Z33	X34	Y34	Z34	X35	Y35	Z35	X36	Y36	Z36	X37	Y37	Z37

	104	1.01667	1789.045	613.486	-173.301	1795.710	625.845	-120.203	1787.887	626.780	-237.383	1868.954	331.743	-109.492	1681.345	345.066	-217.813	1956.357	53.878	-104.296	1535.722	90.536	-220.777	1836.761	687.728	-181.305	1842.654	687.024	-93.025	1830.868	688.433	-269.584	1705.238	707.528	-123.291	1703.650	705.236	-208.096	1869.274	333.497	-63.526	1672.801	345.016	-265.046	1861.040	326.836	-151.934	1680.995	348.001	-176.173	1953.364	53.560	-70.932	1528.363	95.111	-252.101	1956.935	58.833	-129.977	1529.477	94.176	-186.891	1776.442	1022.353	-158.766	1873.479	948.298	-136.876	1855.079	952.819	-227.594	1851.796	963.766	-171.049	1886.620	827.264	-190.281	1959.718	447.782	-138.473	1753.855	400.069	-333.221	1881.055	481.182	-90.033	1779.096	453.469	-254.666	1891.223	394.093	-85.415	1745.926	377.014	-231.987	1956.581	140.031	-4.170	1669.064	143.705	-195.140	1918.292	196.924	-62.768	1640.189	219.822	-216.599	2050.438	42.488	-104.403	1602.689	38.670	-216.065
	105	1.02500	1793.681	615.317	-172.655	1800.247	627.741	-119.325	1793.183	628.221	-236.556	1872.708	333.136	-107.937	1685.547	346.398	-217.521	1956.238	53.828	-103.469	1538.140	92.858	-221.020	1842.172	689.033	-180.430	1847.497	688.671	-92.055	1836.847	689.395	-268.804	1710.496	709.996	-123.976	1709.537	707.538	-208.819	1872.284	334.809	-61.969	1677.351	346.334	-264.816	1863.302	328.584	-149.015	1685.180	349.286	-175.862	1953.320	53.489	-70.098	1530.783	97.568	-252.324	1957.413	59.196	-128.874	1532.135	96.550	-187.063	1782.623	1023.847	-157.170	1879.336	949.461	-134.682	1862.330	954.920	-225.447	1858.161	965.232	-169.002	1893.233	828.971	-189.047	1963.962	448.471	-135.141	1759.081	401.007	-332.553	1885.527	482.509	-86.606	1783.855	454.633	-253.788	1894.109	395.060	-82.082	1750.526	378.220	-231.238	1957.892	139.980	-3.068	1671.906	145.048	-195.366	1920.460	197.305	-60.960	1643.563	221.377	-216.386	2050.286	42.604	-103.477	1603.574	38.803	-216.055
	106	1.03333	1798.404	617.169	-171.980	1804.975	629.610	-118.439	1798.545	629.722	-235.708	1876.602	334.489	-106.617	1689.779	347.787	-217.291	1956.239	53.808	-102.782	1540.737	95.176	-221.289	1847.656	690.390	-179.532	1852.506	690.305	-91.090	1842.807	690.474	-267.973	1715.899	712.334	-124.419	1715.381	709.829	-209.297	1875.245	336.001	-60.662	1681.880	347.742	-264.637	1866.378	330.235	-147.341	1689.441	350.633	-175.718	1953.328	53.438	-69.411	1533.353	100.028	-252.565	1957.681	59.544	-127.882	1534.931	98.859	-187.310	1788.552	1025.299	-155.643	1885.023	950.655	-132.512	1869.483	956.942	-223.193	1864.405	966.708	-166.905	1899.846	830.676	-187.642	1968.387	448.995	-131.439	1764.220	402.081	-331.971	1889.781	483.531	-83.563	1788.641	455.895	-253.043	1896.965	395.711	-79.428	1755.165	379.544	-230.686	1959.103	139.883	-2.174	1674.899	146.468	-195.721	1922.465	197.826	-59.430	1647.356	223.104	-216.530	2050.179	42.690	-102.695	1604.463	38.904	-216.065
	107	1.04167	1803.340	618.977	-171.219	1809.894	631.376	-117.572	1803.986	631.241	-234.868	1880.527	335.756	-105.611	1694.032	349.228	-217.124	1956.351	53.820	-102.301	1543.505	97.469	-221.591	1853.217	691.745	-178.621	1857.674	691.847	-90.140	1848.760	691.642	-267.102	1721.440	714.485	-124.595	1721.169	712.044	-209.494	1878.135	337.043	-59.692	1686.365	349.236	-264.508	1870.283	331.859	-147.010	1693.894	352.008	-175.543	1953.378	53.413	-68.936	1536.068	102.470	-252.831	1957.726	59.786	-127.165	1537.818	101.204	-187.632	1794.322	1026.757	-154.169	1890.549	951.875	-130.391	1876.492	958.871	-220.864	1870.528	968.170	-164.766	1906.325	832.343	-186.072	1972.891	449.331	-127.679	1769.230	403.276	-331.490	1893.727	484.309	-81.075	1793.412	457.191	-252.461	1899.844	396.222	-77.661	1759.876	380.944	-230.252	1960.168	139.743	-1.561	1678.028	147.954	-196.205	1924.231	198.328	-58.467	1651.098	224.946	-216.880	2050.113	42.741	-102.141	1605.360	38.967	-216.085
	108	1.05000	1808.403	620.622	-170.465	1815.006	632.988	-116.743	1809.514	632.737	-234.059	1884.370	336.902	-104.956	1698.312	350.704	-217.018	1956.560	53.868	-102.069	1546.429	99.719	-221.928	1858.860	693.053	-177.712	1863.003	693.243	-89.216	1854.716	692.864	-266.208	1727.124	716.415	-124.499	1726.905	714.127	-209.413	1880.933	337.923	-59.096	1690.796	350.803	-264.426	1874.432	333.364	-147.166	1698.331	353.482	-175.339	1953.462	53.417	-68.715	1538.920	104.873	-253.125	1957.700	59.849	-126.834	1540.883	103.527	-188.000	1799.995	1028.207	-152.800	1895.962	953.081	-128.207	1883.399	960.734	-218.527	1876.529	969.601	-162.596	1912.696	833.966	-184.376	1977.391	449.472	-124.138	1774.079	404.573	-331.123	1897.545	484.892	-79.008	1798.203	458.480	-251.979	1902.728	396.702	-76.368	1764.509	382.350	-229.890	1961.061	139.568	-1.267	1681.280	149.486	-196.802	1925.800	198.688	-58.134	1654.684	226.736	-217.222	2050.079	42.750	-101.874	1606.274	38.994	-216.101
	109	1.05833	1813.649	622.097	-169.715	1820.284	634.412	-115.975	1815.123	634.175	-233.306	1888.028	337.902	-104.645	1702.636	352.191	-216.970	1956.848	53.949	-102.095	1549.491	101.908	-222.296	1864.571	694.281	-176.823	1868.464	694.459	-88.335	1860.678	694.102	-265.311	1732.937	718.115	-124.149	1732.616	716.033	-209.099	1883.621	338.644	-58.863	1695.185	352.417	-264.388	1877.871	334.767	-147.323	1702.574	354.940	-175.364	1953.575	53.455	-68.758	1541.895	107.219	-253.446	1957.698	59.719	-126.886	1544.081	105.755	-188.406	1805.583	1029.560	-151.471	1901.327	954.278	-125.999	1890.162	962.483	-216.152	1882.408	970.996	-160.401	1919.032	835.532	-182.535	1981.823	449.410	-121.054	1778.761	405.947	-330.880	1901.331	485.290	-77.231	1803.015	459.703	-251.591	1905.260	397.153	-75.278	1768.956	383.655	-229.741	1961.797	139.364	-1.288	1684.644	151.041	-197.485	1927.250	198.949	-58.472	1658.401	228.530	-217.542	2050.071	42.718	-101.915	1607.224	38.993	-216.106
	110	1.06667	1819.092	623.397	-169.015	1825.707	635.641	-115.282	1820.801	635.529	-232.624	1891.440	338.745	-104.641	1707.034	353.656	-216.980	1957.194	54.057	-102.357	1552.672	104.022	-222.684	1870.341	695.406	-175.979	1874.040	695.491	-87.519	1866.642	695.321	-264.440	1738.859	719.597	-123.584	1738.336	717.731	-208.621	1886.216	339.226	-58.941	1699.557	354.043	-264.393	1880.468	336.012	-147.678	1705.950	356.909	-175.552	1953.722	53.522	-69.042	1544.981	109.488	-253.784	1957.729	59.508	-127.408	1547.317	107.927	-188.823	1811.034	1030.746	-150.073	1906.654	955.497	-123.790	1896.761	964.123	-213.661	1888.168	972.353	-158.185	1925.438	837.077	-180.514	1986.151	449.157	-118.615	1783.291	407.366	-330.767	1905.133	485.488	-75.947	1807.804	460.863	-251.389	1907.395	397.442	-74.578	1772.721	384.818	-229.643	1962.420	139.131	-1.586	1688.116	152.583	-198.227	1928.603	199.154	-59.273	1662.175	230.360	-217.927	2050.087	42.645	-102.248	1608.225	38.976	-216.099
	111	1.07500	1824.675	624.542	-168.362	1831.241	636.688	-114.678	1826.527	636.781	-232.028	1894.607	339.438	-104.885	1711.536	355.064	-217.044	1957.576	54.177	-102.807	1555.960	106.047	-223.081	1876.151	696.419	-175.205	1879.702	696.349	-86.789	1872.600	696.489	-263.620	1744.828	720.895	-122.892	1744.095	719.208	-208.061	1888.780	339.700	-59.256	1703.951	355.639	-264.438	1883.130	336.834	-148.425	1708.712	359.470	-175.709	1953.906	53.609	-69.514	1548.168	111.668	-254.128	1957.818	59.259	-128.294	1550.599	110.048	-189.225	1816.296	1031.790	-148.668	1911.878	956.726	-121.484	1903.175	965.707	-211.164	1893.808	973.663	-155.952	1931.858	838.625	-178.362	1990.365	448.745	-116.950	1787.710	408.795	-330.782	1908.965	485.408	-75.291	1812.616	461.978	-251.370	1909.732	397.373	-74.450	1775.982	385.972	-229.506	1963.006	138.868	-2.098	1691.698	154.074	-199.013	1929.879	199.304	-60.279	1665.999	232.169	-218.363	2050.129	42.540	-102.818	1609.287	38.956	-216.083
	112	1.08333	1830.355	625.542	-167.784	1836.872	637.580	-114.164	1832.282	637.922	-231.519	1897.581	340.005	-105.306	1716.174	356.373	-217.161	1957.958	54.292	-103.379	1559.352	107.971	-223.473	1881.991	697.324	-174.522	1885.447	697.066	-86.165	1878.535	697.582	-262.880	1750.783	722.046	-122.169	1749.898	720.471	-207.496	1891.411	340.103	-59.722	1708.412	357.159	-264.522	1885.973	337.335	-149.436	1712.755	361.324	-175.712	1954.129	53.707	-70.104	1551.449	113.748	-254.464	1957.980	58.908	-129.254	1554.023	112.090	-189.629	1821.472	1032.730	-147.359	1917.001	957.961	-119.089	1909.440	967.253	-208.778	1899.325	974.917	-153.719	1938.228	840.168	-176.128	1994.471	448.234	-116.124	1792.072	410.195	-330.916	1912.897	485.182	-75.215	1817.452	463.052	-251.480	1912.460	397.127	-74.821	1780.122	387.223	-229.594	1963.662	138.588	-2.751	1695.397	155.472	-199.844	1931.093	199.356	-61.398	1669.941	233.898	-218.775	2050.192	42.411	-103.545	1610.413	38.939	-216.064
	113	1.09167	1836.057	626.416	-167.298	1842.565	638.344	-113.741	1838.033	638.948	-231.097	1900.455	340.479	-105.826	1720.977	357.544	-217.326	1958.296	54.384	-104.000	1562.852	109.782	-223.853	1887.835	698.126	-173.949	1891.245	697.671	-85.662	1884.425	698.580	-262.236	1756.673	723.082	-121.490	1755.728	721.546	-206.981	1894.220	340.479	-60.250	1712.987	358.552	-264.646	1888.857	337.727	-150.386	1718.033	362.354	-175.649	1954.386	53.806	-70.734	1554.824	115.720	-254.781	1958.242	58.504	-130.252	1557.590	114.010	-190.009	1826.562	1033.611	-146.137	1922.049	959.168	-116.672	1915.560	968.722	-206.436	1904.717	976.105	-151.509	1944.503	841.657	-173.832	1998.489	447.694	-116.138	1796.442	411.528	-331.159	1917.045	485.085	-75.705	1822.319	464.097	-251.720	1915.603	397.081	-75.498	1785.127	388.455	-229.917	1964.513	138.310	-3.476	1699.227	156.734	-200.731	1932.297	199.254	-62.513	1673.984	235.491	-219.162	2050.271	42.266	-104.341	1611.601	38.924	-216.042
	114	1.10000	1841.740	627.190	-166.941	1848.281	639.008	-113.403	1843.738	639.860	-230.757	1903.330	340.904	-106.364	1725.971	358.541	-217.540	1958.544	54.439	-104.600	1566.468	111.469	-224.213	1893.653	698.831	-173.493	1897.068	698.190	-85.285	1890.239	699.471	-261.701	1762.456	724.029	-120.898	1761.541	722.468	-206.542	1897.307	340.869	-60.760	1717.718	359.775	-264.809	1891.847	337.975	-151.062	1723.478	363.123	-175.674	1954.671	53.897	-71.329	1558.293	117.581	-255.069	1958.563	58.116	-131.225	1561.267	115.745	-190.344	1831.522	1034.386	-144.908	1926.983	960.283	-114.326	1921.482	970.022	-204.076	1909.987	977.212	-149.340	1950.607	843.008	-171.476	2002.445	447.198	-116.927	1800.882	412.760	-331.497	1921.458	485.142	-76.632	1827.333	465.006	-252.007	1919.264	397.232	-76.309	1790.251	389.439	-230.319	1965.671	138.056	-4.210	1703.195	157.822	-201.702	1933.705	199.047	-63.535	1678.175	236.934	-219.543	2050.355	42.112	-105.119	1612.847	38.909	-216.020
	115	1.10833	1847.346	627.883	-166.696	1853.987	639.596	-113.134	1849.361	640.662	-230.483	1906.295	341.318	-106.846	1731.179	359.331	-217.800	1958.671	54.448	-105.125	1570.215	113.029	-224.552	1899.415	699.448	-173.152	1902.889	698.648	-85.031	1895.941	700.249	-261.273	1768.116	724.900	-120.437	1767.286	723.276	-206.183	1900.734	341.306	-61.184	1722.647	360.786	-265.014	1894.812	338.085	-151.398	1729.121	363.529	-175.864	1954.976	53.973	-71.833	1561.860	119.332	-255.320	1958.695	57.815	-132.040	1565.088	117.332	-190.643	1836.482	1034.993	-143.696	1931.807	961.326	-112.108	1927.239	971.144	-201.786	1915.141	978.225	-147.234	1956.537	844.217	-169.088	2006.363	446.797	-118.357	1805.447	413.869	-331.921	1926.175	485.384	-77.966	1832.527	465.688	-252.300	1923.330	397.510	-77.185	1795.558	390.156	-230.847	1967.206	137.839	-4.905	1707.304	158.699	-202.789	1935.578	199.029	-64.364	1682.633	238.174	-219.955	2050.440	41.955	-105.810	1614.152	38.891	-215.995
